<svg xmlns="http://www.w3.org/2000/svg" viewBox="0 0 50 50"><g transform="matrix(3.5714285714285716,0,0,3.5714285714285716,0,0)"><g>
<path d="M2,4h8a.5.5,0,0,1,.5.5V9a2,2,0,0,1-2,2h-5a2,2,0,0,1-2-2V4.5A.5.5,0,0,1,2,4Z" fill="#ffffff" stroke="#ffffff" stroke-linecap="round" stroke-linejoin="round"></path>
<path d="M10.5,5h1a2,2,0,0,1,2,2h0a2,2,0,0,1-2,2h-1" fill="none" stroke="#ffffff" stroke-linecap="round" stroke-linejoin="round"></path><line x1="3" y1="0.5" x2="3" y2="1.5" fill="none" stroke="#ffffff" stroke-linecap="round" stroke-linejoin="round"></line>
<line x1="8" y1="0.5" x2="8" y2="1.5" fill="none" stroke="#ffffff" stroke-linecap="round" stroke-linejoin="round"></line><line x1="5.5" y1="0.5" x2="5.5" y2="1.5" fill="none" stroke="#ffffff" stroke-linecap="round" stroke-linejoin="round"></line></g></g></svg>