<svg fill="#1c1d25" xmlns="http://www.w3.org/2000/svg"  viewBox="0 0 50 50" width="100px" height="100px"><path d="M25,24.999c-0.229,0-0.457-0.078-0.643-0.234C21.284,22.183,18,18.161,18,14.615C18,10.968,21.14,8,25,8l0,0	c3.859,0.001,7,2.969,7,6.615c0,3.546-3.284,7.567-6.357,10.149C25.458,24.921,25.229,24.999,25,24.999z"/><path d="M15.121,38.999c-2.4,0-4.791-1.302-6.129-3.598l0,0c-0.966-1.657-1.243-3.641-0.76-5.441	c0.455-1.695,1.524-3.098,3.013-3.948c3.102-1.772,8.282-0.938,12.094,0.432c0.459,0.165,0.732,0.638,0.646,1.117	c-0.708,3.959-2.57,8.821-5.676,10.598C17.31,38.729,16.214,38.999,15.121,38.999z"/><path d="M34.878,38.999c-1.094,0-2.188-0.271-3.186-0.841c-3.106-1.775-4.969-6.639-5.676-10.598	c-0.086-0.479,0.187-0.952,0.646-1.117c3.813-1.37,8.992-2.204,12.094-0.432c1.489,0.851,2.56,2.253,3.014,3.949	c0.482,1.801,0.205,3.783-0.761,5.44l0,0C39.668,37.697,37.277,38.999,34.878,38.999z"/><circle cx="25" cy="25" r="22" fill="none" stroke="#1c1d25" stroke-miterlimit="10" stroke-width="2"/></svg>